<mxfile host="app.diagrams.net" modified="2021-04-20T15:54:05.715Z" agent="5.0 (Windows NT 10.0; Win64; x64) AppleWebKit/537.36 (KHTML, like Gecko) Chrome/88.0.4324.182 Safari/537.36" etag="OPtyowLlXcCiIo2sArYK" version="14.6.3" type="github">
  <diagram id="6Np3gE4oclcGdoE9a9Ij" name="第 1 页">
    <mxGraphModel dx="782" dy="381" grid="1" gridSize="10" guides="1" tooltips="1" connect="1" arrows="1" fold="1" page="1" pageScale="1" pageWidth="827" pageHeight="1169" math="0" shadow="0">
      <root>
        <mxCell id="0" />
        <mxCell id="1" parent="0" />
        <mxCell id="pZ0CoqFwRD-a4DhV9BjD-2" value="应用组成员" style="shape=umlActor;verticalLabelPosition=bottom;verticalAlign=top;html=1;outlineConnect=0;labelBackgroundColor=none;" vertex="1" parent="1">
          <mxGeometry x="110" y="880" width="30" height="60" as="geometry" />
        </mxCell>
        <mxCell id="pZ0CoqFwRD-a4DhV9BjD-3" value="" style="whiteSpace=wrap;html=1;labelBackgroundColor=none;" vertex="1" parent="1">
          <mxGeometry x="220" y="720" width="400" height="390" as="geometry" />
        </mxCell>
        <mxCell id="pZ0CoqFwRD-a4DhV9BjD-4" value="应用管理" style="ellipse;whiteSpace=wrap;html=1;" vertex="1" parent="1">
          <mxGeometry x="240" y="815" width="80" height="40" as="geometry" />
        </mxCell>
        <mxCell id="pZ0CoqFwRD-a4DhV9BjD-5" value="组员管理" style="ellipse;whiteSpace=wrap;html=1;" vertex="1" parent="1">
          <mxGeometry x="374" y="780" width="80" height="40" as="geometry" />
        </mxCell>
        <mxCell id="pZ0CoqFwRD-a4DhV9BjD-7" value="统计数据查询" style="ellipse;whiteSpace=wrap;html=1;" vertex="1" parent="1">
          <mxGeometry x="240" y="1050" width="80" height="40" as="geometry" />
        </mxCell>
        <mxCell id="pZ0CoqFwRD-a4DhV9BjD-9" value="加组申请" style="ellipse;whiteSpace=wrap;html=1;" vertex="1" parent="1">
          <mxGeometry x="518" y="780" width="80" height="40" as="geometry" />
        </mxCell>
        <mxCell id="pZ0CoqFwRD-a4DhV9BjD-10" value="应用创建申请" style="ellipse;whiteSpace=wrap;html=1;" vertex="1" parent="1">
          <mxGeometry x="374" y="850" width="80" height="40" as="geometry" />
        </mxCell>
        <mxCell id="pZ0CoqFwRD-a4DhV9BjD-11" value="登录" style="ellipse;whiteSpace=wrap;html=1;" vertex="1" parent="1">
          <mxGeometry x="240" y="740" width="80" height="40" as="geometry" />
        </mxCell>
        <mxCell id="pZ0CoqFwRD-a4DhV9BjD-35" style="rounded=0;orthogonalLoop=1;jettySize=auto;html=1;exitX=1;exitY=0.5;exitDx=0;exitDy=0;entryX=0;entryY=0.5;entryDx=0;entryDy=0;" edge="1" parent="1" source="pZ0CoqFwRD-a4DhV9BjD-12" target="pZ0CoqFwRD-a4DhV9BjD-34">
          <mxGeometry relative="1" as="geometry" />
        </mxCell>
        <mxCell id="pZ0CoqFwRD-a4DhV9BjD-12" value="进度管理" style="ellipse;whiteSpace=wrap;html=1;" vertex="1" parent="1">
          <mxGeometry x="240" y="960" width="80" height="40" as="geometry" />
        </mxCell>
        <mxCell id="pZ0CoqFwRD-a4DhV9BjD-40" style="edgeStyle=none;rounded=0;orthogonalLoop=1;jettySize=auto;html=1;exitX=1;exitY=0.5;exitDx=0;exitDy=0;entryX=0;entryY=0.5;entryDx=0;entryDy=0;" edge="1" parent="1" source="pZ0CoqFwRD-a4DhV9BjD-13" target="pZ0CoqFwRD-a4DhV9BjD-39">
          <mxGeometry relative="1" as="geometry" />
        </mxCell>
        <mxCell id="pZ0CoqFwRD-a4DhV9BjD-13" value="管道交付任务" style="ellipse;whiteSpace=wrap;html=1;" vertex="1" parent="1">
          <mxGeometry x="374" y="960" width="80" height="40" as="geometry" />
        </mxCell>
        <mxCell id="pZ0CoqFwRD-a4DhV9BjD-47" style="edgeStyle=none;rounded=0;orthogonalLoop=1;jettySize=auto;html=1;exitX=1;exitY=0.5;exitDx=0;exitDy=0;entryX=0;entryY=0.5;entryDx=0;entryDy=0;" edge="1" parent="1" source="pZ0CoqFwRD-a4DhV9BjD-14" target="pZ0CoqFwRD-a4DhV9BjD-46">
          <mxGeometry relative="1" as="geometry" />
        </mxCell>
        <mxCell id="pZ0CoqFwRD-a4DhV9BjD-14" value="模型交付任务" style="ellipse;whiteSpace=wrap;html=1;" vertex="1" parent="1">
          <mxGeometry x="374" y="1020" width="80" height="40" as="geometry" />
        </mxCell>
        <mxCell id="pZ0CoqFwRD-a4DhV9BjD-15" value="" style="endArrow=none;html=1;entryX=0;entryY=0.5;entryDx=0;entryDy=0;" edge="1" parent="1" target="pZ0CoqFwRD-a4DhV9BjD-11">
          <mxGeometry width="50" height="50" relative="1" as="geometry">
            <mxPoint x="150" y="910" as="sourcePoint" />
            <mxPoint x="200" y="860" as="targetPoint" />
          </mxGeometry>
        </mxCell>
        <mxCell id="pZ0CoqFwRD-a4DhV9BjD-16" value="" style="endArrow=none;html=1;entryX=0;entryY=0.5;entryDx=0;entryDy=0;" edge="1" parent="1" target="pZ0CoqFwRD-a4DhV9BjD-4">
          <mxGeometry width="50" height="50" relative="1" as="geometry">
            <mxPoint x="150" y="910" as="sourcePoint" />
            <mxPoint x="200" y="860" as="targetPoint" />
          </mxGeometry>
        </mxCell>
        <mxCell id="pZ0CoqFwRD-a4DhV9BjD-17" value="" style="endArrow=none;html=1;entryX=0;entryY=0.5;entryDx=0;entryDy=0;" edge="1" parent="1" target="pZ0CoqFwRD-a4DhV9BjD-12">
          <mxGeometry width="50" height="50" relative="1" as="geometry">
            <mxPoint x="150" y="910" as="sourcePoint" />
            <mxPoint x="200" y="860" as="targetPoint" />
          </mxGeometry>
        </mxCell>
        <mxCell id="pZ0CoqFwRD-a4DhV9BjD-18" value="" style="endArrow=none;html=1;exitX=0;exitY=0.5;exitDx=0;exitDy=0;" edge="1" parent="1" source="pZ0CoqFwRD-a4DhV9BjD-7">
          <mxGeometry width="50" height="50" relative="1" as="geometry">
            <mxPoint x="100" y="960" as="sourcePoint" />
            <mxPoint x="150" y="910" as="targetPoint" />
          </mxGeometry>
        </mxCell>
        <mxCell id="pZ0CoqFwRD-a4DhV9BjD-19" value="" style="endArrow=classic;html=1;exitX=1;exitY=0.5;exitDx=0;exitDy=0;entryX=0;entryY=0.5;entryDx=0;entryDy=0;" edge="1" parent="1" source="pZ0CoqFwRD-a4DhV9BjD-4" target="pZ0CoqFwRD-a4DhV9BjD-5">
          <mxGeometry width="50" height="50" relative="1" as="geometry">
            <mxPoint x="320.3" y="830" as="sourcePoint" />
            <mxPoint x="370.30000000000007" y="780" as="targetPoint" />
          </mxGeometry>
        </mxCell>
        <mxCell id="pZ0CoqFwRD-a4DhV9BjD-21" value="" style="endArrow=classic;html=1;entryX=0;entryY=0.5;entryDx=0;entryDy=0;exitX=1;exitY=0.5;exitDx=0;exitDy=0;" edge="1" parent="1" source="pZ0CoqFwRD-a4DhV9BjD-4" target="pZ0CoqFwRD-a4DhV9BjD-10">
          <mxGeometry width="50" height="50" relative="1" as="geometry">
            <mxPoint x="295.3" y="940" as="sourcePoint" />
            <mxPoint x="345.3" y="890" as="targetPoint" />
          </mxGeometry>
        </mxCell>
        <mxCell id="pZ0CoqFwRD-a4DhV9BjD-22" value="" style="endArrow=classic;html=1;entryX=0;entryY=0.5;entryDx=0;entryDy=0;" edge="1" parent="1" target="pZ0CoqFwRD-a4DhV9BjD-13">
          <mxGeometry width="50" height="50" relative="1" as="geometry">
            <mxPoint x="320.30000000000007" y="980" as="sourcePoint" />
            <mxPoint x="370.3" y="930" as="targetPoint" />
          </mxGeometry>
        </mxCell>
        <mxCell id="pZ0CoqFwRD-a4DhV9BjD-23" value="" style="endArrow=classic;html=1;entryX=0;entryY=0.5;entryDx=0;entryDy=0;" edge="1" parent="1" target="pZ0CoqFwRD-a4DhV9BjD-14">
          <mxGeometry width="50" height="50" relative="1" as="geometry">
            <mxPoint x="319.9999999999999" y="980" as="sourcePoint" />
            <mxPoint x="370" y="930" as="targetPoint" />
          </mxGeometry>
        </mxCell>
        <mxCell id="pZ0CoqFwRD-a4DhV9BjD-25" value="" style="endArrow=classic;html=1;entryX=0;entryY=0.5;entryDx=0;entryDy=0;exitX=1;exitY=0.5;exitDx=0;exitDy=0;" edge="1" parent="1" target="pZ0CoqFwRD-a4DhV9BjD-9" source="pZ0CoqFwRD-a4DhV9BjD-5">
          <mxGeometry width="50" height="50" relative="1" as="geometry">
            <mxPoint x="450" y="780" as="sourcePoint" />
            <mxPoint x="500" y="730" as="targetPoint" />
          </mxGeometry>
        </mxCell>
        <mxCell id="pZ0CoqFwRD-a4DhV9BjD-26" value="《包含》" style="edgeLabel;html=1;align=center;verticalAlign=middle;resizable=0;points=[];labelBackgroundColor=none;" vertex="1" connectable="0" parent="1">
          <mxGeometry x="345.3" y="810" as="geometry" />
        </mxCell>
        <mxCell id="pZ0CoqFwRD-a4DhV9BjD-28" value="《包含》" style="edgeLabel;html=1;align=center;verticalAlign=middle;resizable=0;points=[];labelBackgroundColor=none;" vertex="1" connectable="0" parent="1">
          <mxGeometry x="345.3" y="860" as="geometry" />
        </mxCell>
        <mxCell id="pZ0CoqFwRD-a4DhV9BjD-30" value="《包含》" style="edgeLabel;html=1;align=center;verticalAlign=middle;resizable=0;points=[];labelBackgroundColor=none;" vertex="1" connectable="0" parent="1">
          <mxGeometry x="480" y="799" as="geometry" />
        </mxCell>
        <mxCell id="pZ0CoqFwRD-a4DhV9BjD-31" value="《包含》" style="edgeLabel;html=1;align=center;verticalAlign=middle;resizable=0;points=[];labelBackgroundColor=none;" vertex="1" connectable="0" parent="1">
          <mxGeometry x="345.3" y="977" as="geometry" />
        </mxCell>
        <mxCell id="pZ0CoqFwRD-a4DhV9BjD-32" value="《包含》" style="edgeLabel;html=1;align=center;verticalAlign=middle;resizable=0;points=[];labelBackgroundColor=none;" vertex="1" connectable="0" parent="1">
          <mxGeometry x="345.3" y="1004" as="geometry" />
        </mxCell>
        <mxCell id="pZ0CoqFwRD-a4DhV9BjD-41" style="edgeStyle=none;rounded=0;orthogonalLoop=1;jettySize=auto;html=1;exitX=1;exitY=0.5;exitDx=0;exitDy=0;entryX=0;entryY=0.5;entryDx=0;entryDy=0;" edge="1" parent="1" source="pZ0CoqFwRD-a4DhV9BjD-34" target="pZ0CoqFwRD-a4DhV9BjD-37">
          <mxGeometry relative="1" as="geometry" />
        </mxCell>
        <mxCell id="pZ0CoqFwRD-a4DhV9BjD-42" style="edgeStyle=none;rounded=0;orthogonalLoop=1;jettySize=auto;html=1;exitX=1;exitY=0.5;exitDx=0;exitDy=0;entryX=0;entryY=0.5;entryDx=0;entryDy=0;" edge="1" parent="1" source="pZ0CoqFwRD-a4DhV9BjD-34" target="pZ0CoqFwRD-a4DhV9BjD-38">
          <mxGeometry relative="1" as="geometry" />
        </mxCell>
        <mxCell id="pZ0CoqFwRD-a4DhV9BjD-34" value="管道集成任务" style="ellipse;whiteSpace=wrap;html=1;" vertex="1" parent="1">
          <mxGeometry x="374" y="900" width="80" height="40" as="geometry" />
        </mxCell>
        <mxCell id="pZ0CoqFwRD-a4DhV9BjD-36" value="《包含》" style="edgeLabel;html=1;align=center;verticalAlign=middle;resizable=0;points=[];labelBackgroundColor=none;" vertex="1" connectable="0" parent="1">
          <mxGeometry x="346.3" y="954" as="geometry" />
        </mxCell>
        <mxCell id="pZ0CoqFwRD-a4DhV9BjD-37" value="代码构建&lt;span style=&quot;color: rgba(0 , 0 , 0 , 0) ; font-family: monospace ; font-size: 0px&quot;&gt;%3CmxGraphModel%3E%3Croot%3E%3CmxCell%20id%3D%220%22%2F%3E%3CmxCell%20id%3D%221%22%20parent%3D%220%22%2F%3E%3CmxCell%20id%3D%222%22%20value%3D%22%E7%AE%A1%E9%81%93%E9%9B%86%E6%88%90%E4%BB%BB%E5%8A%A1%22%20style%3D%22ellipse%3BwhiteSpace%3Dwrap%3Bhtml%3D1%3B%22%20vertex%3D%221%22%20parent%3D%221%22%3E%3CmxGeometry%20x%3D%22374%22%20y%3D%22900%22%20width%3D%2280%22%20height%3D%2240%22%20as%3D%22geometry%22%2F%3E%3C%2FmxCell%3E%3C%2Froot%3E%3C%2FmxGraphModel%3E&lt;/span&gt;" style="ellipse;whiteSpace=wrap;html=1;" vertex="1" parent="1">
          <mxGeometry x="508" y="870" width="80" height="40" as="geometry" />
        </mxCell>
        <mxCell id="pZ0CoqFwRD-a4DhV9BjD-38" value="测试" style="ellipse;whiteSpace=wrap;html=1;" vertex="1" parent="1">
          <mxGeometry x="508" y="917" width="80" height="40" as="geometry" />
        </mxCell>
        <mxCell id="pZ0CoqFwRD-a4DhV9BjD-39" value="工件部署" style="ellipse;whiteSpace=wrap;html=1;" vertex="1" parent="1">
          <mxGeometry x="510" y="960" width="80" height="40" as="geometry" />
        </mxCell>
        <mxCell id="pZ0CoqFwRD-a4DhV9BjD-43" value="《包含》" style="edgeLabel;html=1;align=center;verticalAlign=middle;resizable=0;points=[];labelBackgroundColor=none;" vertex="1" connectable="0" parent="1">
          <mxGeometry x="480" y="900" as="geometry" />
        </mxCell>
        <mxCell id="pZ0CoqFwRD-a4DhV9BjD-44" value="《包含》" style="edgeLabel;html=1;align=center;verticalAlign=middle;resizable=0;points=[];labelBackgroundColor=none;" vertex="1" connectable="0" parent="1">
          <mxGeometry x="480" y="930" as="geometry" />
        </mxCell>
        <mxCell id="pZ0CoqFwRD-a4DhV9BjD-45" value="《包含》" style="edgeLabel;html=1;align=center;verticalAlign=middle;resizable=0;points=[];labelBackgroundColor=none;" vertex="1" connectable="0" parent="1">
          <mxGeometry x="480" y="977" as="geometry" />
        </mxCell>
        <mxCell id="pZ0CoqFwRD-a4DhV9BjD-46" value="模型预测服务部署" style="ellipse;whiteSpace=wrap;html=1;" vertex="1" parent="1">
          <mxGeometry x="510" y="1020" width="80" height="40" as="geometry" />
        </mxCell>
        <mxCell id="pZ0CoqFwRD-a4DhV9BjD-48" value="《包含》" style="edgeLabel;html=1;align=center;verticalAlign=middle;resizable=0;points=[];labelBackgroundColor=none;" vertex="1" connectable="0" parent="1">
          <mxGeometry x="478" y="1040" as="geometry" />
        </mxCell>
        <mxCell id="pZ0CoqFwRD-a4DhV9BjD-49" value="系统管理员" style="shape=umlActor;verticalLabelPosition=bottom;verticalAlign=top;html=1;outlineConnect=0;labelBackgroundColor=none;" vertex="1" parent="1">
          <mxGeometry x="100" y="360" width="30" height="60" as="geometry" />
        </mxCell>
        <mxCell id="pZ0CoqFwRD-a4DhV9BjD-50" value="" style="whiteSpace=wrap;html=1;labelBackgroundColor=none;" vertex="1" parent="1">
          <mxGeometry x="210" y="80" width="400" height="510" as="geometry" />
        </mxCell>
        <mxCell id="pZ0CoqFwRD-a4DhV9BjD-95" style="edgeStyle=none;rounded=0;orthogonalLoop=1;jettySize=auto;html=1;exitX=1;exitY=0.5;exitDx=0;exitDy=0;entryX=0;entryY=0.5;entryDx=0;entryDy=0;" edge="1" parent="1" source="pZ0CoqFwRD-a4DhV9BjD-51" target="pZ0CoqFwRD-a4DhV9BjD-90">
          <mxGeometry relative="1" as="geometry" />
        </mxCell>
        <mxCell id="pZ0CoqFwRD-a4DhV9BjD-96" style="edgeStyle=none;rounded=0;orthogonalLoop=1;jettySize=auto;html=1;exitX=1;exitY=0.5;exitDx=0;exitDy=0;entryX=0;entryY=0.5;entryDx=0;entryDy=0;" edge="1" parent="1" source="pZ0CoqFwRD-a4DhV9BjD-51" target="pZ0CoqFwRD-a4DhV9BjD-91">
          <mxGeometry relative="1" as="geometry" />
        </mxCell>
        <mxCell id="pZ0CoqFwRD-a4DhV9BjD-51" value="应用管理" style="ellipse;whiteSpace=wrap;html=1;" vertex="1" parent="1">
          <mxGeometry x="230" y="295" width="80" height="40" as="geometry" />
        </mxCell>
        <mxCell id="pZ0CoqFwRD-a4DhV9BjD-93" style="edgeStyle=none;rounded=0;orthogonalLoop=1;jettySize=auto;html=1;exitX=1;exitY=0.5;exitDx=0;exitDy=0;entryX=0;entryY=0.5;entryDx=0;entryDy=0;" edge="1" parent="1" source="pZ0CoqFwRD-a4DhV9BjD-52" target="pZ0CoqFwRD-a4DhV9BjD-92">
          <mxGeometry relative="1" as="geometry" />
        </mxCell>
        <mxCell id="pZ0CoqFwRD-a4DhV9BjD-52" value="组员管理" style="ellipse;whiteSpace=wrap;html=1;" vertex="1" parent="1">
          <mxGeometry x="364" y="230" width="80" height="40" as="geometry" />
        </mxCell>
        <mxCell id="pZ0CoqFwRD-a4DhV9BjD-53" value="统计数据查询" style="ellipse;whiteSpace=wrap;html=1;" vertex="1" parent="1">
          <mxGeometry x="230" y="530" width="80" height="40" as="geometry" />
        </mxCell>
        <mxCell id="pZ0CoqFwRD-a4DhV9BjD-54" value="加组审批" style="ellipse;whiteSpace=wrap;html=1;" vertex="1" parent="1">
          <mxGeometry x="510" y="210" width="80" height="40" as="geometry" />
        </mxCell>
        <mxCell id="pZ0CoqFwRD-a4DhV9BjD-55" value="应用创建" style="ellipse;whiteSpace=wrap;html=1;" vertex="1" parent="1">
          <mxGeometry x="364" y="380" width="80" height="40" as="geometry" />
        </mxCell>
        <mxCell id="pZ0CoqFwRD-a4DhV9BjD-56" value="登录" style="ellipse;whiteSpace=wrap;html=1;" vertex="1" parent="1">
          <mxGeometry x="230" y="110" width="80" height="40" as="geometry" />
        </mxCell>
        <mxCell id="pZ0CoqFwRD-a4DhV9BjD-58" value="进度管理" style="ellipse;whiteSpace=wrap;html=1;" vertex="1" parent="1">
          <mxGeometry x="230" y="440" width="80" height="40" as="geometry" />
        </mxCell>
        <mxCell id="pZ0CoqFwRD-a4DhV9BjD-59" style="edgeStyle=none;rounded=0;orthogonalLoop=1;jettySize=auto;html=1;exitX=1;exitY=0.5;exitDx=0;exitDy=0;entryX=0;entryY=0.5;entryDx=0;entryDy=0;" edge="1" parent="1" source="pZ0CoqFwRD-a4DhV9BjD-60" target="pZ0CoqFwRD-a4DhV9BjD-83">
          <mxGeometry relative="1" as="geometry" />
        </mxCell>
        <mxCell id="pZ0CoqFwRD-a4DhV9BjD-60" value="管道交付任务" style="ellipse;whiteSpace=wrap;html=1;" vertex="1" parent="1">
          <mxGeometry x="364" y="440" width="80" height="40" as="geometry" />
        </mxCell>
        <mxCell id="pZ0CoqFwRD-a4DhV9BjD-61" style="edgeStyle=none;rounded=0;orthogonalLoop=1;jettySize=auto;html=1;exitX=1;exitY=0.5;exitDx=0;exitDy=0;entryX=0;entryY=0.5;entryDx=0;entryDy=0;" edge="1" parent="1" source="pZ0CoqFwRD-a4DhV9BjD-62" target="pZ0CoqFwRD-a4DhV9BjD-87">
          <mxGeometry relative="1" as="geometry" />
        </mxCell>
        <mxCell id="pZ0CoqFwRD-a4DhV9BjD-62" value="模型交付任务" style="ellipse;whiteSpace=wrap;html=1;" vertex="1" parent="1">
          <mxGeometry x="364" y="500" width="80" height="40" as="geometry" />
        </mxCell>
        <mxCell id="pZ0CoqFwRD-a4DhV9BjD-63" value="" style="endArrow=none;html=1;entryX=0;entryY=0.5;entryDx=0;entryDy=0;" edge="1" parent="1" target="pZ0CoqFwRD-a4DhV9BjD-56">
          <mxGeometry width="50" height="50" relative="1" as="geometry">
            <mxPoint x="140" y="390" as="sourcePoint" />
            <mxPoint x="190" y="340" as="targetPoint" />
          </mxGeometry>
        </mxCell>
        <mxCell id="pZ0CoqFwRD-a4DhV9BjD-64" value="" style="endArrow=none;html=1;entryX=0;entryY=0.5;entryDx=0;entryDy=0;" edge="1" parent="1" target="pZ0CoqFwRD-a4DhV9BjD-51">
          <mxGeometry width="50" height="50" relative="1" as="geometry">
            <mxPoint x="140" y="390" as="sourcePoint" />
            <mxPoint x="190" y="340" as="targetPoint" />
          </mxGeometry>
        </mxCell>
        <mxCell id="pZ0CoqFwRD-a4DhV9BjD-65" value="" style="endArrow=none;html=1;entryX=0;entryY=0.5;entryDx=0;entryDy=0;" edge="1" parent="1" target="pZ0CoqFwRD-a4DhV9BjD-58">
          <mxGeometry width="50" height="50" relative="1" as="geometry">
            <mxPoint x="140" y="390" as="sourcePoint" />
            <mxPoint x="190" y="340" as="targetPoint" />
          </mxGeometry>
        </mxCell>
        <mxCell id="pZ0CoqFwRD-a4DhV9BjD-66" value="" style="endArrow=none;html=1;exitX=0;exitY=0.5;exitDx=0;exitDy=0;" edge="1" parent="1" source="pZ0CoqFwRD-a4DhV9BjD-53">
          <mxGeometry width="50" height="50" relative="1" as="geometry">
            <mxPoint x="90" y="440" as="sourcePoint" />
            <mxPoint x="140" y="390" as="targetPoint" />
          </mxGeometry>
        </mxCell>
        <mxCell id="pZ0CoqFwRD-a4DhV9BjD-67" value="" style="endArrow=classic;html=1;exitX=1;exitY=0.5;exitDx=0;exitDy=0;entryX=0;entryY=0.5;entryDx=0;entryDy=0;" edge="1" parent="1" source="pZ0CoqFwRD-a4DhV9BjD-51" target="pZ0CoqFwRD-a4DhV9BjD-52">
          <mxGeometry width="50" height="50" relative="1" as="geometry">
            <mxPoint x="310.3" y="310" as="sourcePoint" />
            <mxPoint x="360.30000000000007" y="260" as="targetPoint" />
          </mxGeometry>
        </mxCell>
        <mxCell id="pZ0CoqFwRD-a4DhV9BjD-68" value="" style="endArrow=classic;html=1;entryX=0;entryY=0.5;entryDx=0;entryDy=0;exitX=1;exitY=0.5;exitDx=0;exitDy=0;" edge="1" parent="1" source="pZ0CoqFwRD-a4DhV9BjD-51" target="pZ0CoqFwRD-a4DhV9BjD-55">
          <mxGeometry width="50" height="50" relative="1" as="geometry">
            <mxPoint x="285.3" y="420" as="sourcePoint" />
            <mxPoint x="335.3" y="370" as="targetPoint" />
          </mxGeometry>
        </mxCell>
        <mxCell id="pZ0CoqFwRD-a4DhV9BjD-69" value="" style="endArrow=classic;html=1;entryX=0;entryY=0.5;entryDx=0;entryDy=0;" edge="1" parent="1" target="pZ0CoqFwRD-a4DhV9BjD-60">
          <mxGeometry width="50" height="50" relative="1" as="geometry">
            <mxPoint x="310.3000000000002" y="460" as="sourcePoint" />
            <mxPoint x="360.3" y="410" as="targetPoint" />
          </mxGeometry>
        </mxCell>
        <mxCell id="pZ0CoqFwRD-a4DhV9BjD-70" value="" style="endArrow=classic;html=1;entryX=0;entryY=0.5;entryDx=0;entryDy=0;" edge="1" parent="1" target="pZ0CoqFwRD-a4DhV9BjD-62">
          <mxGeometry width="50" height="50" relative="1" as="geometry">
            <mxPoint x="310" y="460" as="sourcePoint" />
            <mxPoint x="360" y="410" as="targetPoint" />
          </mxGeometry>
        </mxCell>
        <mxCell id="pZ0CoqFwRD-a4DhV9BjD-71" value="" style="endArrow=classic;html=1;entryX=0;entryY=0.5;entryDx=0;entryDy=0;exitX=1;exitY=0.5;exitDx=0;exitDy=0;" edge="1" parent="1" source="pZ0CoqFwRD-a4DhV9BjD-52" target="pZ0CoqFwRD-a4DhV9BjD-54">
          <mxGeometry width="50" height="50" relative="1" as="geometry">
            <mxPoint x="440" y="260" as="sourcePoint" />
            <mxPoint x="490" y="210" as="targetPoint" />
          </mxGeometry>
        </mxCell>
        <mxCell id="pZ0CoqFwRD-a4DhV9BjD-72" value="《包含》" style="edgeLabel;html=1;align=center;verticalAlign=middle;resizable=0;points=[];labelBackgroundColor=none;" vertex="1" connectable="0" parent="1">
          <mxGeometry x="335.3" y="279" as="geometry" />
        </mxCell>
        <mxCell id="pZ0CoqFwRD-a4DhV9BjD-73" value="《包含》" style="edgeLabel;html=1;align=center;verticalAlign=middle;resizable=0;points=[];labelBackgroundColor=none;" vertex="1" connectable="0" parent="1">
          <mxGeometry x="335.3" y="360" as="geometry" />
        </mxCell>
        <mxCell id="pZ0CoqFwRD-a4DhV9BjD-74" value="《包含》" style="edgeLabel;html=1;align=center;verticalAlign=middle;resizable=0;points=[];labelBackgroundColor=none;" vertex="1" connectable="0" parent="1">
          <mxGeometry x="468" y="240" as="geometry" />
        </mxCell>
        <mxCell id="pZ0CoqFwRD-a4DhV9BjD-75" value="《包含》" style="edgeLabel;html=1;align=center;verticalAlign=middle;resizable=0;points=[];labelBackgroundColor=none;" vertex="1" connectable="0" parent="1">
          <mxGeometry x="335.3" y="457" as="geometry" />
        </mxCell>
        <mxCell id="pZ0CoqFwRD-a4DhV9BjD-76" value="《包含》" style="edgeLabel;html=1;align=center;verticalAlign=middle;resizable=0;points=[];labelBackgroundColor=none;" vertex="1" connectable="0" parent="1">
          <mxGeometry x="335.3" y="484" as="geometry" />
        </mxCell>
        <mxCell id="pZ0CoqFwRD-a4DhV9BjD-83" value="任务审批" style="ellipse;whiteSpace=wrap;html=1;" vertex="1" parent="1">
          <mxGeometry x="500" y="440" width="80" height="40" as="geometry" />
        </mxCell>
        <mxCell id="pZ0CoqFwRD-a4DhV9BjD-86" value="《包含》" style="edgeLabel;html=1;align=center;verticalAlign=middle;resizable=0;points=[];labelBackgroundColor=none;" vertex="1" connectable="0" parent="1">
          <mxGeometry x="470" y="457" as="geometry" />
        </mxCell>
        <mxCell id="pZ0CoqFwRD-a4DhV9BjD-87" value="任务审批" style="ellipse;whiteSpace=wrap;html=1;" vertex="1" parent="1">
          <mxGeometry x="500" y="500" width="80" height="40" as="geometry" />
        </mxCell>
        <mxCell id="pZ0CoqFwRD-a4DhV9BjD-88" value="《包含》" style="edgeLabel;html=1;align=center;verticalAlign=middle;resizable=0;points=[];labelBackgroundColor=none;" vertex="1" connectable="0" parent="1">
          <mxGeometry x="468" y="520" as="geometry" />
        </mxCell>
        <mxCell id="pZ0CoqFwRD-a4DhV9BjD-90" value="应用审批" style="ellipse;whiteSpace=wrap;html=1;" vertex="1" parent="1">
          <mxGeometry x="364" y="279" width="80" height="40" as="geometry" />
        </mxCell>
        <mxCell id="pZ0CoqFwRD-a4DhV9BjD-91" value="应用删除" style="ellipse;whiteSpace=wrap;html=1;" vertex="1" parent="1">
          <mxGeometry x="364" y="330" width="80" height="40" as="geometry" />
        </mxCell>
        <mxCell id="pZ0CoqFwRD-a4DhV9BjD-92" value="权限管理" style="ellipse;whiteSpace=wrap;html=1;" vertex="1" parent="1">
          <mxGeometry x="508" y="260" width="80" height="40" as="geometry" />
        </mxCell>
        <mxCell id="pZ0CoqFwRD-a4DhV9BjD-94" value="《包含》" style="edgeLabel;html=1;align=center;verticalAlign=middle;resizable=0;points=[];labelBackgroundColor=none;" vertex="1" connectable="0" parent="1">
          <mxGeometry x="469" y="265" as="geometry" />
        </mxCell>
        <mxCell id="pZ0CoqFwRD-a4DhV9BjD-97" value="《包含》" style="edgeLabel;html=1;align=center;verticalAlign=middle;resizable=0;points=[];labelBackgroundColor=none;" vertex="1" connectable="0" parent="1">
          <mxGeometry x="335.3" y="310" as="geometry" />
        </mxCell>
        <mxCell id="pZ0CoqFwRD-a4DhV9BjD-98" value="《包含》" style="edgeLabel;html=1;align=center;verticalAlign=middle;resizable=0;points=[];labelBackgroundColor=none;" vertex="1" connectable="0" parent="1">
          <mxGeometry x="335.3" y="335" as="geometry" />
        </mxCell>
        <mxCell id="pZ0CoqFwRD-a4DhV9BjD-99" value="资源管理" style="ellipse;whiteSpace=wrap;html=1;" vertex="1" parent="1">
          <mxGeometry x="230" y="198" width="80" height="40" as="geometry" />
        </mxCell>
        <mxCell id="pZ0CoqFwRD-a4DhV9BjD-100" value="" style="endArrow=none;html=1;entryX=0;entryY=0.5;entryDx=0;entryDy=0;" edge="1" parent="1" target="pZ0CoqFwRD-a4DhV9BjD-99">
          <mxGeometry width="50" height="50" relative="1" as="geometry">
            <mxPoint x="140" y="390" as="sourcePoint" />
            <mxPoint x="190" y="340" as="targetPoint" />
          </mxGeometry>
        </mxCell>
      </root>
    </mxGraphModel>
  </diagram>
</mxfile>
